<?xml version="1.0" encoding="UTF-8"?>
<svg xmlns="http://www.w3.org/2000/svg" xmlns:xlink="http://www.w3.org/1999/xlink" width="17pt" height="21pt" viewBox="0 0 17 21" version="1.1">
<g id="surface1">
<path style=" stroke:none;fill-rule:nonzero;fill:rgb(82.745098%,83.137255%,92.941176%);fill-opacity:1;" d="M 16.296875 2.515625 L 14.292969 0.644531 C 13.371094 -0.214844 11.878906 -0.214844 10.957031 0.644531 L 2.359375 8.691406 C 2.09375 8.941406 1.890625 9.242188 1.769531 9.574219 L 0.046875 14.734375 C -0.0546875 15.042969 0.03125 15.382812 0.277344 15.617188 C 0.527344 15.851562 0.890625 15.933594 1.222656 15.835938 L 6.734375 14.21875 C 7.09375 14.109375 7.417969 13.925781 7.683594 13.675781 L 16.296875 5.625 C 17.214844 4.765625 17.214844 3.378906 16.296875 2.515625 Z M 13.292969 3.449219 L 5.269531 10.945312 C 4.894531 11.222656 4.355469 11.191406 4.015625 10.871094 C 3.675781 10.558594 3.648438 10.050781 3.949219 9.703125 L 11.96875 2.207031 C 12.335938 1.863281 12.933594 1.863281 13.304688 2.207031 C 13.671875 2.550781 13.671875 3.109375 13.304688 3.453125 Z M 13.292969 3.449219 "/>
<path style=" stroke:none;fill-rule:nonzero;fill:rgb(82.745098%,83.137255%,92.941176%);fill-opacity:1;" d="M 15.804688 21.167969 L 1.179688 21.167969 C 0.527344 21.167969 0 20.675781 0 20.066406 C 0 19.457031 0.527344 18.964844 1.179688 18.964844 L 15.804688 18.964844 C 16.457031 18.964844 16.984375 19.457031 16.984375 20.066406 C 16.984375 20.675781 16.457031 21.167969 15.804688 21.167969 Z M 15.804688 21.167969 "/>
</g>
</svg>
